<?xml version="1.0" encoding="UTF-8" standalone="no"?>
<svg
		fill="#000000"
		height="16px"
		width="16px"
		version="1.1"
		id="Capa_1"
		viewBox="0 0 16 16"
		xml:space="preserve"
		xmlns="http://www.w3.org/2000/svg"
><defs
   id="defs422" />
	<path
			d="M 15.95328,2.4756364 C 15.58272,1.2276364 12.82464,0 8,0 3.17536,0 0.41696,1.2276364 0.04672,2.4756364 0.01984,2.5184 0,2.5652364 0,2.6181818 V 2.7636364 6.1090909 6.2545455 6.4 9.6 9.7454545 9.8909091 13.381818 c 0,0.04707 0.01376,0.09164 0.03738182,0.131171 C 0.41536,14.937018 3.79648,16 8,16 c 4.19392,0 7.5696,-1.058618 7.96,-2.477382 0.0256,-0.0416 0.04,-0.0896 0.04,-0.1408 V 9.8909091 9.7454545 9.6 6.4 6.2545455 6.1090909 2.7636364 2.6181818 C 16,2.5652364 15.98016,2.5184 15.95328,2.4756364 Z m -0.61856,7.4109091 c -0.009,0.0352 -0.02144,0.070109 -0.03712,0.1056 -0.0128,0.028799 -0.02848,0.057602 -0.04576,0.0864 -0.02144,0.03578 -0.04544,0.07156 -0.07392,0.107346 -0.02112,0.02705 -0.04512,0.05382 -0.07008,0.08058 -0.03552,0.03811 -0.07328,0.07622 -0.11616,0.114036 -0.02592,0.02298 -0.0544,0.04567 -0.0832,0.06865 -0.05248,0.0416 -0.1072,0.08291 -0.16832,0.123927 -0.02624,0.01774 -0.0544,0.03491 -0.08224,0.05236 -0.07232,0.04538 -0.14784,0.09047 -0.23072,0.13469 -0.02182,0.01193 -0.04509,0.02327 -0.06778,0.03491 -0.09542,0.04888 -0.194938,0.09746 -0.302458,0.144591 -0.01376,0.0061 -0.02816,0.01193 -0.04224,0.01775 -0.12,0.05149 -0.24544,0.102109 -0.37952,0.150982 -0.0038,0.0015 -0.0077,0.0026 -0.01152,0.0041 -0.72672,0.263855 -1.65632,0.485819 -2.73952,0.631273 -0.0054,5.82e-4 -0.01088,0.0012 -0.01629,0.002 -0.210589,0.02822 -0.426589,0.05324 -0.648349,0.07535 -0.03616,0.0035 -0.07424,0.0058 -0.11072,0.0093 -0.1936,0.01833 -0.38944,0.0352 -0.59104,0.04858 -0.09216,0.0061 -0.1888,0.009 -0.28256,0.01425 -0.15168,0.0081 -0.30176,0.01716 -0.45728,0.02211 -0.25408,0.0073 -0.51328,0.01193 -0.77792,0.01193 -0.26464,0 -0.52384,-0.0047 -0.77824,-0.0128 -0.15552,-0.0049 -0.3056,-0.01425 -0.45728,-0.02211 -0.09376,-0.0049 -0.1904,-0.0081 -0.28256,-0.01426 -0.2016,-0.01338 -0.39744,-0.03025 -0.59104,-0.04858 -0.03648,-0.0035 -0.07456,-0.0058 -0.11072,-0.0093 C 5.5584,11.798109 5.3424,11.7728 5.13184,11.744873 5.1264,11.744291 5.12096,11.743709 5.11552,11.742836 4.03232,11.597382 3.10272,11.375418 2.376,11.111564 2.37216,11.1104 2.36832,11.108945 2.36448,11.107491 2.2304,11.058618 2.10464,11.008 1.98496,10.956509 1.9712,10.9504 1.95648,10.944582 1.94272,10.938764 1.8352,10.891636 1.73568,10.843345 1.64032,10.794182 1.61792,10.782545 1.59424,10.7712 1.57248,10.759273 1.4896,10.715055 1.41408,10.669964 1.34176,10.624582 1.31424,10.607127 1.28576,10.589964 1.25952,10.572218 1.1984,10.5312 1.14368,10.489891 1.0912,10.448291 1.06272,10.4256 1.03392,10.402909 1.008,10.379636 0.96512,10.341818 0.92736,10.304 0.89184,10.2656 0.86688,10.238836 0.84288,10.212073 0.82176,10.185018 0.7936,10.149236 0.7696,10.113455 0.74784,10.077673 0.73056,10.048873 0.7152,10.020073 0.70208,9.9912727 0.6864,9.9560727 0.67392,9.9208727 0.66496,9.8856727 0.65312,9.8394182 0.64,9.7922909 0.64,9.7454545 0.64,9.7125818 0.64416,9.6797091 0.64992,9.6471273 0.65792,9.6032 0.65344,9.5592727 0.64,9.5176727 V 7.3579636 c 0.00896,0.00756 0.0202182,0.014836 0.0293818,0.0224 0.0698182,0.055855 0.1408,0.1114182 0.2208,0.1649455 C 2.09568,8.3741091 4.50624,9.0181818 8,9.0181818 c 3.47904,0 5.88352,-0.6388363 7.09408,-1.4626909 0.09664,-0.064 0.18368,-0.1300364 0.2656,-0.1972364 L 15.36,7.3579636 v 2.1597091 c -0.01344,0.0416 -0.01792,0.085527 -0.0099,0.1294546 0.0061,0.032582 0.0099,0.065455 0.0099,0.098327 0,0.046836 -0.01312,0.093964 -0.02531,0.141091 z M 15.36,3.8670545 v 2.1597091 c -0.01344,0.0416 -0.01792,0.085527 -0.0099,0.1294546 0.0061,0.032582 0.0099,0.065455 0.0099,0.098327 0,0.046836 -0.01312,0.093964 -0.02528,0.1410909 -0.009,0.0352 -0.02144,0.070109 -0.03712,0.1056 -0.0128,0.0288 -0.02848,0.0576 -0.04576,0.0864 C 15.2304,6.6234182 15.2064,6.6592 15.17792,6.6949818 15.1568,6.7220364 15.1328,6.7488 15.10784,6.7755636 15.07232,6.8136727 15.03456,6.8517818 14.99168,6.8896 c -0.02592,0.022982 -0.0544,0.045673 -0.0832,0.068655 -0.05248,0.0416 -0.1072,0.082909 -0.16832,0.1239273 -0.02624,0.017746 -0.0544,0.034909 -0.08224,0.052364 -0.07232,0.045382 -0.14784,0.090473 -0.23072,0.1346909 -0.02182,0.011927 -0.04509,0.023273 -0.06778,0.034909 -0.09542,0.048872 -0.19494,0.097454 -0.30246,0.1445811 -0.01376,0.00611 -0.02816,0.011927 -0.04224,0.017745 -0.12,0.051491 -0.24544,0.1021091 -0.37952,0.1509818 -0.0038,0.00145 -0.0077,0.00262 -0.01152,0.00407 -0.72672,0.2638545 -1.65632,0.4858182 -2.73952,0.6312727 -0.0054,5.818e-4 -0.01088,0.00116 -0.01629,0.00204 -0.210589,0.028218 -0.426589,0.053236 -0.648349,0.075345 -0.03616,0.00349 -0.07424,0.00582 -0.11072,0.00931 -0.1936,0.018327 -0.38944,0.0352 -0.59104,0.048582 -0.09216,0.00611 -0.1888,0.00902 -0.28256,0.014255 -0.15168,0.00815 -0.30176,0.017164 -0.45728,0.022109 C 8.52384,8.4317069 8.26464,8.4363639 8,8.4363639 c -0.26464,0 -0.52384,-0.00465 -0.77824,-0.0128 C 7.06624,8.4186182 6.91616,8.4093091 6.76448,8.4014545 6.67072,8.3965091 6.57408,8.3933091 6.48192,8.3872 6.28032,8.3738182 6.08448,8.3569455 5.89088,8.3386182 5.8544,8.3351273 5.81632,8.3328 5.78016,8.3293091 5.5584,8.3072 5.3424,8.2818909 5.13184,8.2539636 5.1264,8.2533818 5.12096,8.2528 5.11552,8.2519273 4.03232,8.1064727 3.10272,7.8845091 2.376,7.6206545 2.37216,7.6194909 2.36832,7.6180364 2.36448,7.6165818 2.2304,7.5677091 2.10464,7.5170909 1.98496,7.4656 1.9712,7.4594909 1.95648,7.4536727 1.94272,7.4478545 1.8352,7.4007273 1.73568,7.3524364 1.64032,7.3032727 1.61792,7.2916364 1.59424,7.2802909 1.57248,7.2683636 1.4896,7.2241455 1.41408,7.1790545 1.34176,7.1336727 1.31424,7.1162182 1.28576,7.0990545 1.25952,7.0813091 1.1984,7.0402909 1.14368,6.9989818 1.0912,6.9573818 1.06272,6.9346909 1.03392,6.912 1.008,6.8887273 0.96512,6.8509091 0.92736,6.8130909 0.89184,6.7746909 0.86688,6.7479273 0.84288,6.7211636 0.82176,6.6941091 0.7936,6.6583273 0.7696,6.6225455 0.74784,6.5867636 0.73056,6.5579636 0.7152,6.5291636 0.70208,6.5003636 0.6864,6.4651636 0.67392,6.4299636 0.66496,6.3947636 0.65312,6.3485091 0.64,6.3013818 0.64,6.2545455 0.64,6.2216727 0.64416,6.1888 0.64992,6.1562182 0.65792,6.1122909 0.65344,6.0683636 0.64,6.0267636 V 3.8670545 c 0.0384,0.031709 0.0821818,0.062836 0.12378176,0.094255 0.0229818,0.017455 0.0445091,0.034909 0.0688,0.052364 0.096,0.068655 0.19968004,0.1364364 0.31200004,0.2024728 0.023418,0.013673 0.0496,0.027055 0.073891,0.040727 0.094109,0.053236 0.1936,0.1053091 0.29824,0.1565091 0.038691,0.018909 0.077382,0.037527 0.117382,0.056146 0.1168,0.054109 0.23936,0.1067636 0.36832,0.1576727 0.021091,0.00844 0.040291,0.017164 0.061818,0.025309 0.15008,0.057891 0.30944,0.1131636 0.4752,0.1666909 0.045818,0.014836 0.093818,0.0288 0.1408,0.043346 0.1317824,0.040436 0.26816,0.079127 0.40928,0.1166545 0.050909,0.013382 0.1008,0.027346 0.15296,0.040146 0.1872,0.047127 0.38048,0.091927 0.58336,0.1332363 0.027782,0.00582 0.057891,0.010473 0.086109,0.016 0.17888,0.035491 0.36448,0.068364 0.5552,0.0992 0.064582,0.010473 0.1301824,0.020364 0.19616,0.030255 0.18144,0.027055 0.36832,0.051782 0.56,0.074473 0.049309,0.00582 0.096291,0.012509 0.14624,0.018036 0.23808,0.026182 0.48448,0.048582 0.7376,0.067782 0.0624,0.00465 0.1274176,0.00815 0.19072,0.012218 0.20256,0.013382 0.4096,0.024436 0.62144,0.033164 0.077091,0.0032 0.15392,0.0064 0.23264,0.00902 0.27584,0.00844 0.5568,0.014545 0.848,0.014545 0.2912,0 0.57216,-0.00611 0.848,-0.014545 0.0784,-0.00262 0.1552,-0.00582 0.23264,-0.00902 0.21184,-0.00873 0.41888,-0.019782 0.62144,-0.033164 0.063418,-0.00436 0.128,-0.00756 0.19072,-0.012218 0.2531792,-0.018912 0.4995792,-0.041602 0.7376592,-0.067784 0.04992,-0.00553 0.09696,-0.012218 0.14624,-0.018036 0.19168,-0.022691 0.37824,-0.047418 0.56,-0.074473 0.06592,-0.00989 0.13152,-0.019782 0.19616,-0.030255 0.19072,-0.030836 0.37632,-0.063709 0.5552,-0.0992 0.02822,-0.00553 0.05818,-0.010473 0.08611,-0.016 0.202851,-0.041309 0.396131,-0.0864 0.583331,-0.133236 0.05216,-0.013091 0.10208,-0.026764 0.15296,-0.040146 0.14112,-0.037527 0.27744,-0.076218 0.40928,-0.1166545 0.04704,-0.014546 0.09504,-0.028509 0.1408,-0.043346 0.16576,-0.053527 0.32544,-0.1088 0.4752,-0.1666909 0.02144,-0.00815 0.04064,-0.016873 0.06176,-0.025309 0.12896,-0.0512 0.25152,-0.1035636 0.36832,-0.1576727 0.04,-0.018618 0.07904,-0.037236 0.11744,-0.056146 0.10464,-0.050909 0.20416,-0.1029818 0.29824,-0.1565091 0.02432,-0.013673 0.05056,-0.027054 0.07392,-0.040727 0.11232,-0.066036 0.216,-0.1335273 0.312,-0.2024728 0.024,-0.017454 0.04544,-0.034909 0.0688,-0.052364 0.0416,-0.031418 0.08544,-0.062545 0.12384,-0.094255 z M 8,0.58181818 c 4.3376,0 7.36,1.14967272 7.36,2.18181822 0,1.0321454 -3.0224,2.1818181 -7.36,2.1818181 -4.3376,0 -7.36,-1.1496727 -7.36,-2.1818181 C 0.64,1.7314909 3.6624,0.58181818 8,0.58181818 Z M 15.36,13.295418 c -0.0045,0.0128 -0.0077,0.02592 -0.01024,0.03927 -0.18144,1.006257 -3.17824,2.083494 -7.34976,2.083494 -4.17152,0 -7.16832,-1.077237 -7.34976,-2.083491 C 0.64768,13.3216 0.64416,13.3088 0.64,13.296582 v -2.447709 c 0.00896,0.0076 0.0202182,0.01484 0.0293818,0.0224 0.0698182,0.05585 0.1408,0.111418 0.2208,0.164945 C 2.09568,11.865018 4.50624,12.509091 8,12.509091 c 3.47904,0 5.88352,-0.638836 7.09408,-1.462691 0.09664,-0.064 0.18368,-0.130036 0.2656,-0.197236 l 3.2e-4,-2.91e-4 z"
			id="path417"
			style="stroke-width:0.305108"/>
</svg>
