<?xml version="1.0" encoding="UTF-8" standalone="no"?>
<!--
  - Copyright (c) 2023 Stephane Passignat - Exygen
  -
  - Permission is hereby granted, free of charge, to any person obtaining a copy
  - of this software and associated documentation files (the "Software"), to deal
  - in the Software without restriction, including without limitation the rights
  - to use, copy, modify, merge, publish, distribute, sublicense, and/or sell
  - copies of the Software, and to permit persons to whom the Software is furnished
  - to do so, subject to the following conditions:
  - The above copyright notice and this permission notice shall be included in all
  - copies or substantial portions of the Software.
  -
  - THE SOFTWARE IS PROVIDED "AS IS", WITHOUT WARRANTY OF ANY KIND, EXPRESS OR IMPLIED,
  - INCLUDING BUT NOT LIMITED TO THE WARRANTIES OF MERCHANTABILITY, FITNESS FOR A
  - PARTICULAR PURPOSE AND NON INFRINGEMENT. IN NO EVENT SHALL THE AUTHORS OR COPYRIGHT
  - HOLDERS BE LIABLE FOR ANY CLAIM, DAMAGES OR OTHER LIABILITY, WHETHER IN AN ACTION OF
  - CONTRACT, TORT OR OTHERWISE, ARISING FROM, OUT OF OR IN CONNECTION WITH THE SOFTWARE
  - OR THE USE OR OTHER DEALINGS IN THE SOFTWARE.
  -->
<!-- Generator: Adobe Illustrator 22.0.1, SVG Export Plug-In . SVG Version: 6.00 Build 0)  -->
<svg
		version="1.1"
		id="Layer_1"
		x="0px"
		y="0px"
		viewBox="0 0 13 5.725"
		xmlns="http://www.w3.org/2000/svg"
>
	<style
			type="text/css"
			id="style2">
		.st0{fill:#1f2555;}
		.st1{fill:#00a6a7;fill-opacity:0.5;}
	</style>
	<title
			id="title4">pega-logo
	</title>
	<g
			id="Layer_2_1_"
			transform="matrix(0.25995312,0,0,0.25995312,0,-0.01689904)">
		<g
				id="Layer_1-2">
			<g
					id="g10">
				<path
						class="st0"
						d="m 25.7,3.2 c -0.5,2 -0.5,4 -0.2,6 L 23.9,8.9 C 12.4,7.1 8.9,12.7 10.2,17.3 6.7,18.7 3.3,20.2 0,22 4.5,11.2 14.3,1.6 22.6,0.4 25.3,0 26.1,1.8 25.7,3.2 Z m 24.2,8.7 -0.7,1.2 c -0.4,0.5 -1.1,0.6 -1.6,0.3 -0.2,-0.1 -2.9,-1.7 -3.9,-1.6 -5,0.5 -6.4,-1.6 -6.6,-1.8 -0.2,-0.2 -0.4,-0.1 -0.2,0.3 0.2,0.4 4.4,2.7 4.4,2.7 0.5,1.2 0.8,2.4 0.9,3.6 -0.8,-0.7 -1.7,-1.3 -2.7,-1.7 -3.8,-2.5 -7.9,-4.3 -12.3,-5.3 0.3,-4.5 2.6,-10.9 13.1,-9.4 1.2,0.2 2.4,0.7 3.5,1.3 L 43,2.3 c -0.2,0.2 -0.2,0.5 0,0.7 0,0 0.1,0.1 0.1,0.1 l 2.2,1.7 c -0.1,0.7 0.2,1.5 0.7,2 0.7,0.9 3.4,3.7 3.8,4.1 0.2,0.3 0.3,0.7 0.1,1 z M 44.6,5.6 v 0 c -0.5,-0.2 -1,-0.1 -1.3,0.3 h -0.1 l 1.2,0.5 z"
						id="path6"/>
				<path
						class="st1"
						d="M 26.7,13.2 C 21.1,13.9 15.5,15.3 10.2,17.3 8.9,12.7 12.4,7.1 23.9,8.9 l 1.6,0.3 c 0.2,1.4 0.6,2.7 1.2,4 z m 0.6,-0.1 c 4.5,-0.3 8.7,0.1 12.2,1.8 -3.8,-2.5 -7.9,-4.3 -12.3,-5.3 -0.1,1.2 -0.1,2.3 0.1,3.5 z"
						id="path8"/>
			</g>
		</g>
	</g>
</svg>
